<?xml version="1.0" ?><svg height="128" id="svg8" version="1.1" viewBox="0 0 33.866666 33.866668" width="128" xmlns="http://www.w3.org/2000/svg" xmlns:cc="http://creativecommons.org/ns#" xmlns:dc="http://purl.org/dc/elements/1.1/" xmlns:inkscape="http://www.inkscape.org/namespaces/inkscape" xmlns:rdf="http://www.w3.org/1999/02/22-rdf-syntax-ns#" xmlns:sodipodi="http://sodipodi.sourceforge.net/DTD/sodipodi-0.dtd" xmlns:svg="http://www.w3.org/2000/svg" xmlns:xlink="http://www.w3.org/1999/xlink"><defs id="defs2"><linearGradient id="linearGradient2202"><stop id="stop2198" offset="0" style="stop-color:#f6f600;stop-opacity:1;"/><stop id="stop2200" offset="1" style="stop-color:#f69134;stop-opacity:1"/></linearGradient><linearGradient gradientTransform="matrix(0.39352029,0,0,0.39352035,-185.27183,93.82285)" gradientUnits="userSpaceOnUse" id="linearGradient3363" x1="12.262755" x2="12.262755" xlink:href="#linearGradient2202" y1="9.0164375" y2="14.680936"/><clipPath clipPathUnits="userSpaceOnUse" id="clipPath3457"><rect height="58.93293" id="rect3459" rx="2.6458333" ry="2.6458333" style="fill:#1a1a1a;stroke-width:0.264583;stroke-linecap:square;stroke-dasharray:0.264583, 1.05833;paint-order:fill markers stroke" width="61.739258" x="-262.11121" y="114.49826"/></clipPath></defs><g id="layer1"><path d="m 96.634766,29.595703 c -1.139124,-0.0089 -2.247132,0.371476 -3.140625,1.078125 -2.166034,1.712922 -2.533304,4.857459 -0.820313,7.023438 1.712923,2.166033 4.857459,2.533304 7.023438,0.820312 2.166034,-1.712922 2.533304,-4.857458 0.820314,-7.023437 -0.93979,-1.188414 -2.367759,-1.886596 -3.882814,-1.898438 z M 63.75,33.742188 c -16.929449,0 -30.759766,13.832273 -30.759766,30.761718 0,16.929445 13.830317,30.759766 30.759766,30.759766 16.929445,0 30.759766,-13.830321 30.759766,-30.759766 0,-16.929445 -13.830321,-30.761719 -30.759766,-30.761718 z m 0,9.996093 c 11.525042,0 20.757812,9.24058 20.757812,20.765625 0,11.525046 -9.23277,20.757813 -20.757812,20.757813 -11.525046,0 -20.757812,-9.232767 -20.757812,-20.757813 0,-11.525045 9.232766,-20.765625 20.757812,-20.765625 z" id="rect3857" style="color:#000000;font-style:normal;font-variant:normal;font-weight:normal;font-stretch:normal;font-size:medium;line-height:normal;font-family:sans-serif;font-variant-ligatures:normal;font-variant-position:normal;font-variant-caps:normal;font-variant-numeric:normal;font-variant-alternates:normal;font-variant-east-asian:normal;font-feature-settings:normal;font-variation-settings:normal;text-indent:0;text-align:start;text-decoration:none;text-decoration-line:none;text-decoration-style:solid;text-decoration-color:#000000;letter-spacing:normal;word-spacing:normal;text-transform:none;writing-mode:lr-tb;direction:ltr;text-orientation:mixed;dominant-baseline:auto;baseline-shift:baseline;text-anchor:start;white-space:normal;shape-padding:0;shape-margin:0;inline-size:0;clip-rule:nonzero;display:inline;overflow:visible;visibility:visible;opacity:1;isolation:auto;mix-blend-mode:normal;color-interpolation:sRGB;color-interpolation-filters:linearRGB;solid-color:#000000;solid-opacity:1;vector-effect:none;fill:#0066ff;fill-opacity:1;fill-rule:nonzero;stroke:none;stroke-width:3.77953;stroke-linecap:square;stroke-linejoin:miter;stroke-miterlimit:4;stroke-dasharray:none;stroke-dashoffset:0;stroke-opacity:1;paint-order:fill markers stroke;color-rendering:auto;image-rendering:auto;shape-rendering:auto;text-rendering:auto;enable-background:accumulate;stop-color:#000000;stop-opacity:1" transform="scale(0.26458333)"/><path d="m 30.589844,8.9980469 c -11.875201,0 -21.5917971,9.7165961 -21.5917971,21.5917971 v 66.822265 c 0,11.875201 9.7165961,21.591801 21.5917971,21.591801 h 66.822265 c 11.875201,0 21.591801,-9.7166 21.591801,-21.591801 V 30.589844 c 0,-11.875201 -9.7166,-21.5917971 -21.591801,-21.5917971 z m 0,10.0039061 h 66.822265 c 6.508181,0 11.589841,5.079711 11.589841,11.587891 v 66.822265 c 0,6.508181 -5.08166,11.589841 -11.589841,11.589841 H 30.589844 c -6.50818,0 -11.587891,-5.08166 -11.587891,-11.589841 V 30.589844 c 0,-6.50818 5.079711,-11.587891 11.587891,-11.587891 z" id="path8581" style="color:#000000;font-style:normal;font-variant:normal;font-weight:normal;font-stretch:normal;font-size:medium;line-height:normal;font-family:sans-serif;font-variant-ligatures:normal;font-variant-position:normal;font-variant-caps:normal;font-variant-numeric:normal;font-variant-alternates:normal;font-variant-east-asian:normal;font-feature-settings:normal;font-variation-settings:normal;text-indent:0;text-align:start;text-decoration:none;text-decoration-line:none;text-decoration-style:solid;text-decoration-color:#000000;letter-spacing:normal;word-spacing:normal;text-transform:none;writing-mode:lr-tb;direction:ltr;text-orientation:mixed;dominant-baseline:auto;baseline-shift:baseline;text-anchor:start;white-space:normal;shape-padding:0;shape-margin:0;inline-size:0;clip-rule:nonzero;display:inline;overflow:visible;visibility:visible;opacity:1;isolation:auto;mix-blend-mode:normal;color-interpolation:sRGB;color-interpolation-filters:linearRGB;solid-color:#000000;solid-opacity:1;vector-effect:none;fill:#00a1ff;fill-opacity:1;fill-rule:nonzero;stroke:none;stroke-width:3.77953;stroke-linecap:square;stroke-linejoin:miter;stroke-miterlimit:4;stroke-dasharray:none;stroke-dashoffset:0;stroke-opacity:1;paint-order:fill markers stroke;color-rendering:auto;image-rendering:auto;shape-rendering:auto;text-rendering:auto;enable-background:accumulate;stop-color:#000000;stop-opacity:1" transform="scale(0.26458333)"/></g></svg>